<?xml version="1.0" encoding="UTF-8"?>
<!DOCTYPE svg PUBLIC "-//W3C//DTD SVG 1.1//EN" "http://www.w3.org/Graphics/SVG/1.1/DTD/svg11.dtd">
<!-- Creator: CorelDRAW 2019 (64-Bit) -->
<svg xmlns="http://www.w3.org/2000/svg" xml:space="preserve" width="160px" height="132px" version="1.1" style="shape-rendering:geometricPrecision; text-rendering:geometricPrecision; image-rendering:optimizeQuality; fill-rule:evenodd; clip-rule:evenodd"
viewBox="0 0 160 132"
 xmlns:xlink="http://www.w3.org/1999/xlink"
 xmlns:cc="http://creativecommons.org/ns#"
 xmlns:dc="http://purl.org/dc/elements/1.1/"
 xmlns:inkscape="http://www.inkscape.org/namespaces/inkscape"
 xmlns:rdf="http://www.w3.org/1999/02/22-rdf-syntax-ns#"
 xmlns:sodipodi="http://sodipodi.sourceforge.net/DTD/sodipodi-0.dtd"
 xmlns:svg="http://www.w3.org/2000/svg">
 <defs>
  <style type="text/css">
   <![CDATA[
    .fil0 {fill:#222222;fill-rule:nonzero}
    .fil1 {fill:#392AA0;fill-rule:nonzero}
   ]]>
  </style>
 </defs>
 <g id="Слой_x0020_1">
  <metadata id="CorelCorpID_0Corel-Layer"/>
  <g id="_3257722820144">
   <path id="rect3028" class="fil0" d="M117.04 0l-5.9 2.16 -23.6 8.66 -5.9 2.17 2.15 5.95 38.66 107.11 2.15 5.95 5.89 -2.17 23.61 -8.65 5.9 -2.17 -2.15 -5.96 -38.66 -107.1 -2.15 -5.95 0 0zm-117.04 5.35l0 6.34 0 113.98 0 6.33 6.28 0 25.12 0 6.28 0 0 -6.33 0 -113.98 0 -6.34 -6.28 0 -25.12 0 -6.28 0zm40.82 0l0 6.34 0 113.98 0 6.33 6.28 0 25.12 0 6.28 0 0 -6.33 0 -113.98 0 -6.34 -6.28 0 -25.12 0 -6.28 0zm75.69 11.69l18.8 52.06 -23.61 8.67 -18.79 -52.06 23.6 -8.67 0 0zm-110.23 4.14l25.12 0 0 55.41 -25.12 0 0 -55.41zm40.82 0l25.12 0 0 55.41 -25.12 0 0 -55.41zm86.08 71.11c3.2,0.01 6.21,2.01 7.37,5.22 1.49,4.11 -0.62,8.65 -4.7,10.14 -4.07,1.5 -8.57,-0.62 -10.06,-4.73 -1.48,-4.11 0.62,-8.65 4.7,-10.14 0.89,-0.33 1.8,-0.49 2.69,-0.49l0 0zm-114.34 4.88c4.33,0 7.85,3.55 7.85,7.92 0,4.37 -3.52,7.91 -7.85,7.91 -4.34,0 -7.85,-3.54 -7.85,-7.91 0,-4.37 3.51,-7.92 7.85,-7.92zm40.82 0c4.33,0 7.85,3.55 7.85,7.92 0,4.37 -3.52,7.91 -7.85,7.91 -4.34,0 -7.85,-3.54 -7.85,-7.91 0,-4.37 3.51,-7.92 7.85,-7.92z"/>
   <path id="rect3028_0" class="fil1" d="M117.04 0l-5.9 2.16 -23.61 8.66 -5.89 2.17 2.15 5.95 38.66 107.11 2.15 5.95 5.89 -2.17 23.61 -8.65 5.9 -2.17 -2.15 -5.96 -38.66 -107.1 -2.15 -5.95 0 0zm-0.53 17.04l18.8 52.06 -23.61 8.67 -18.79 -52.06 23.6 -8.67 0 0zm16.67 75.25c3.2,0.01 6.21,2.01 7.37,5.22 1.48,4.11 -0.63,8.65 -4.7,10.14 -4.07,1.5 -8.57,-0.62 -10.06,-4.73 -1.48,-4.11 0.62,-8.65 4.69,-10.14 0.89,-0.33 1.81,-0.49 2.7,-0.49l0 0z"/>
  </g>
 </g>
</svg>
