<svg xmlns="http://www.w3.org/2000/svg" xml:space="preserve" width="76px" height="79px" version="1.1" style="shape-rendering:geometricPrecision; text-rendering:geometricPrecision; image-rendering:optimizeQuality; fill-rule:evenodd; clip-rule:evenodd"
viewBox="0 0 76 79"
 xmlns:xlink="http://www.w3.org/1999/xlink">
 <symbol id="logo-index-bottom" viewBox="0 0 76 79" width="76" height="79">
<defs>
  <style type="text/css">
   <![CDATA[
    .fil1 {fill:white}
    .fil0 {fill:white;fill-rule:nonzero}
   ]]>
  </style>
 </defs>
 <g id="Слой_x0020_1">
  <metadata id="CorelCorpID_0Corel-Layer"/>
  <g id="_3256653378512">
   <path class="fil0" d="M9.99 0.64l18.98 -0.14 33.62 65.11c1.85,3.58 2.66,5.66 4.68,6.81 3.05,1.72 4.95,1.96 8.7,1.96l0.03 5.12 -38.38 0 -0.05 -5.14c0.28,-0.02 4.35,0.26 6.11,-0.49 1.81,-0.77 1.91,-1.95 1.91,-3.11 0,-0.85 -0.9,-2.94 -2.61,-6.25l-32.99 -63.87z"/>
   <ellipse class="fil1" cx="12.77" cy="45.34" rx="12.77" ry="12.01"/>
  </g>
 </g>
 </symbol>
  <symbol id="logo-top" viewBox="0 0 271 148" width="271" height="148">
 <defs>
  <style type="text/css">
   <![CDATA[
    .fil0 {fill:black;fill-rule:nonzero}
   ]]>
  </style>
 </defs>
 <g id="Слой_x0020_1">
  <metadata id="CorelCorpID_0Corel-Layer"/>
  <path class="fil0" d="M17.09 0.26l33.4 -0.26 59.18 121.98c3.25,6.7 4.67,10.6 8.23,12.75 5.36,3.24 8.71,3.68 15.31,3.68l0.05 9.59 -67.55 0 -0.09 -9.63c0.5,-0.03 7.67,0.48 10.76,-0.92 3.18,-1.45 3.35,-3.65 3.35,-5.83 0,-1.59 -1.57,-5.5 -4.58,-11.7l-58.06 -119.66zm129.17 102c0,1.13 -0.39,2.1 -1.19,2.89 -0.8,0.8 -1.76,1.2 -2.88,1.2l-1.63 0c-1.12,0 -2.08,-0.4 -2.88,-1.2 -0.79,-0.79 -1.19,-1.76 -1.19,-2.89l0 -8.18c0,-1.12 0.4,-2.08 1.19,-2.88 0.8,-0.8 1.76,-1.21 2.88,-1.21l1.63 0c1.12,0 2.08,0.41 2.88,1.21 0.8,0.8 1.19,1.76 1.19,2.88l0 8.18zm-1.64 -0.01l0 -8.16c0,-0.67 -0.24,-1.25 -0.72,-1.73 -0.47,-0.48 -1.04,-0.72 -1.71,-0.72l-1.62 0c-0.67,0 -1.25,0.24 -1.72,0.72 -0.47,0.48 -0.71,1.06 -0.71,1.73l0 8.16c0,0.68 0.24,1.25 0.71,1.73 0.47,0.48 1.05,0.72 1.72,0.72l1.62 0c0.67,0 1.24,-0.24 1.71,-0.72 0.48,-0.48 0.72,-1.05 0.72,-1.73zm13.06 -0.81c0,-0.9 -0.32,-1.67 -0.95,-2.3 -0.63,-0.64 -1.39,-0.96 -2.29,-0.96l-3.24 0 0 6.52 3.24 0c0.9,0 1.66,-0.32 2.29,-0.96 0.63,-0.63 0.95,-1.4 0.95,-2.3zm1.65 0c0,1.35 -0.48,2.51 -1.44,3.47 -0.95,0.95 -2.1,1.44 -3.45,1.44l-4.07 0c-0.22,0 -0.41,-0.09 -0.57,-0.25 -0.16,-0.16 -0.25,-0.35 -0.25,-0.57l0 -14.72c0,-0.21 0.08,-0.41 0.25,-0.57 0.16,-0.16 0.35,-0.25 0.57,-0.25l7.31 0c0.54,0 0.82,0.28 0.82,0.83 0,0.55 -0.28,0.82 -0.82,0.82l-6.48 0 0 4.9 3.25 0c1.34,0 2.49,0.48 3.44,1.44 0.96,0.95 1.44,2.11 1.44,3.46zm16.34 0.82c0,1.13 -0.39,2.1 -1.19,2.89 -0.79,0.8 -1.76,1.2 -2.9,1.2l-4.91 0c-0.21,0 -0.41,-0.09 -0.57,-0.25 -0.16,-0.16 -0.24,-0.35 -0.24,-0.57l0 -13.89 -2.44 0c-0.53,0 -0.81,-0.27 -0.81,-0.82 0,-0.55 0.28,-0.83 0.82,-0.83l3.25 0c0.22,0 0.41,0.09 0.58,0.25 0.16,0.16 0.24,0.36 0.24,0.57l0 5.73 4.09 0c1.13,0 2.1,0.39 2.89,1.19 0.8,0.8 1.19,1.76 1.19,2.89l0 1.64zm-1.64 0l0 -1.63c0,-0.68 -0.24,-1.25 -0.72,-1.73 -0.48,-0.48 -1.06,-0.72 -1.73,-0.72l-4.08 0 0 6.52 4.08 0c0.67,0 1.25,-0.24 1.73,-0.72 0.48,-0.47 0.72,-1.05 0.72,-1.72zm6.53 -5.72l4.1 0c0.54,0 0.81,0.27 0.81,0.82 0,0.55 -0.27,0.82 -0.81,0.82l-4.1 0 0 6.52 5.73 0c0.54,0 0.82,0.27 0.82,0.82 0,0.55 -0.28,0.83 -0.82,0.83l-6.55 0c-0.55,0 -0.82,-0.26 -0.82,-0.77l0 -14.77c0,-0.54 0.27,-0.82 0.82,-0.82l6.55 0c0.54,0 0.82,0.28 0.82,0.83 0,0.55 -0.28,0.82 -0.82,0.82l-5.73 0 0 4.9zm19.71 9.03c0,0.22 -0.09,0.41 -0.27,0.56 -0.17,0.16 -0.37,0.24 -0.58,0.24 -0.31,0 -0.54,-0.15 -0.71,-0.44l-4.78 -8.54 -1.94 1.91 0 6.23c0,0.55 -0.28,0.82 -0.82,0.82 -0.55,0 -0.83,-0.27 -0.83,-0.82l0 -14.71c0,-0.54 0.28,-0.8 0.83,-0.8 0.54,0 0.82,0.26 0.82,0.8l0 6.26 6.87 -6.84c0.16,-0.16 0.35,-0.25 0.56,-0.25 0.21,0 0.4,0.09 0.58,0.26 0.16,0.17 0.25,0.36 0.25,0.58 0,0.21 -0.08,0.39 -0.25,0.55l-4.86 4.86 5.01 8.91c0.08,0.13 0.12,0.28 0.12,0.42zm7.26 -13.93l-3.28 0c-0.55,0 -0.82,-0.27 -0.82,-0.82 0,-0.55 0.27,-0.83 0.82,-0.83l8.18 0c0.54,0 0.82,0.28 0.82,0.83 0,0.55 -0.28,0.82 -0.82,0.82l-3.28 0 0 13.89c0,0.55 -0.27,0.82 -0.81,0.82 -0.54,0 -0.81,-0.27 -0.81,-0.82l0 -13.89zm18.73 10.62c0,1.13 -0.4,2.1 -1.2,2.89 -0.79,0.8 -1.75,1.2 -2.87,1.2l-1.63 0c-1.13,0 -2.09,-0.4 -2.88,-1.2 -0.79,-0.79 -1.19,-1.76 -1.19,-2.89l0 -8.18c0,-1.12 0.4,-2.08 1.19,-2.88 0.79,-0.8 1.75,-1.21 2.88,-1.21l1.63 0c1.12,0 2.08,0.41 2.87,1.21 0.8,0.8 1.2,1.76 1.2,2.88l0 8.18zm-1.64 -0.01l0 -8.16c0,-0.67 -0.24,-1.25 -0.72,-1.73 -0.47,-0.48 -1.05,-0.72 -1.72,-0.72l-1.62 0c-0.67,0 -1.24,0.24 -1.71,0.72 -0.48,0.48 -0.72,1.06 -0.72,1.73l0 8.16c0,0.68 0.24,1.25 0.72,1.73 0.47,0.48 1.04,0.72 1.71,0.72l1.62 0c0.67,0 1.25,-0.24 1.72,-0.72 0.48,-0.48 0.72,-1.05 0.72,-1.73zm15.15 -0.8c0,1.34 -0.48,2.5 -1.44,3.46 -0.96,0.96 -2.12,1.44 -3.47,1.44l-4.92 0c-0.24,0 -0.44,-0.08 -0.59,-0.23 -0.15,-0.15 -0.23,-0.35 -0.23,-0.59l0 -14.72c0,-0.21 0.08,-0.41 0.25,-0.57 0.16,-0.16 0.35,-0.25 0.57,-0.25l4.91 0c1.12,0 2.08,0.41 2.89,1.21 0.8,0.8 1.2,1.76 1.2,2.88 0,1.31 -0.51,2.37 -1.53,3.2 1.58,0.95 2.36,2.34 2.36,4.17zm-2.48 -7.36c0,-0.67 -0.23,-1.25 -0.72,-1.73 -0.47,-0.48 -1.05,-0.72 -1.72,-0.72l-4.09 0 0 4.9 4.09 0c0.67,0 1.25,-0.24 1.72,-0.72 0.49,-0.48 0.72,-1.06 0.72,-1.73zm0.84 7.35c0,-0.9 -0.32,-1.67 -0.96,-2.3 -0.64,-0.64 -1.41,-0.96 -2.31,-0.96l-4.1 0 0 6.52 4.1 0c0.9,0 1.67,-0.32 2.31,-0.96 0.64,-0.63 0.96,-1.4 0.96,-2.3zm-113.76 -21.75l-3.27 0c-1.12,0 -2.09,-0.4 -2.89,-1.2 -0.79,-0.79 -1.2,-1.76 -1.2,-2.89l0 -8.18c0,-1.12 0.41,-2.08 1.2,-2.88 0.8,-0.8 1.77,-1.21 2.89,-1.21l3.27 0c0.54,0 0.82,0.28 0.82,0.83 0,0.55 -0.28,0.82 -0.82,0.82l-3.27 0c-0.67,0 -1.25,0.24 -1.72,0.72 -0.48,0.48 -0.72,1.05 -0.72,1.73l0 8.16c0,0.67 0.24,1.25 0.72,1.73 0.47,0.48 1.05,0.72 1.72,0.72l3.27 0c0.54,0 0.82,0.27 0.82,0.82 0,0.55 -0.28,0.83 -0.82,0.83zm8.19 -14.71l-3.28 0c-0.54,0 -0.81,-0.27 -0.81,-0.82 0,-0.55 0.27,-0.83 0.81,-0.83l8.19 0c0.54,0 0.81,0.28 0.81,0.83 0,0.55 -0.27,0.82 -0.81,0.82l-3.29 0 0 13.89c0,0.55 -0.27,0.82 -0.81,0.82 -0.54,0 -0.81,-0.27 -0.81,-0.82l0 -13.89zm17.09 3.26c0,-0.9 -0.32,-1.67 -0.95,-2.3 -0.63,-0.64 -1.39,-0.96 -2.29,-0.96l-3.24 0 0 6.52 3.24 0c0.9,0 1.66,-0.32 2.29,-0.96 0.63,-0.63 0.95,-1.4 0.95,-2.3zm1.65 0c0,1.35 -0.48,2.51 -1.43,3.46 -0.96,0.96 -2.11,1.44 -3.45,1.44l-3.25 0 0 5.73c0,0.54 -0.27,0.82 -0.82,0.82 -0.55,0 -0.82,-0.28 -0.82,-0.82l0 -14.72c0,-0.22 0.08,-0.41 0.24,-0.57 0.17,-0.16 0.35,-0.25 0.57,-0.25l4.07 0c1.35,0 2.5,0.49 3.45,1.44 0.96,0.96 1.44,2.12 1.44,3.47zm13.06 7.36c0,1.13 -0.4,2.1 -1.2,2.89 -0.8,0.8 -1.75,1.2 -2.87,1.2l-1.63 0c-1.13,0 -2.09,-0.4 -2.89,-1.2 -0.79,-0.79 -1.18,-1.76 -1.18,-2.89l0 -8.18c0,-1.12 0.39,-2.08 1.18,-2.88 0.8,-0.8 1.76,-1.21 2.89,-1.21l1.63 0c1.12,0 2.07,0.41 2.87,1.21 0.8,0.8 1.2,1.76 1.2,2.88l0 8.18zm-1.65 -0.01l0 -8.16c0,-0.68 -0.24,-1.25 -0.71,-1.73 -0.48,-0.48 -1.05,-0.72 -1.72,-0.72l-1.62 0c-0.67,0 -1.24,0.24 -1.71,0.72 -0.48,0.48 -0.72,1.05 -0.72,1.73l0 8.16c0,0.67 0.24,1.25 0.72,1.73 0.47,0.48 1.04,0.72 1.71,0.72l1.62 0c0.67,0 1.24,-0.24 1.72,-0.72 0.47,-0.48 0.71,-1.06 0.71,-1.73zm14.71 3.28c0,0.54 -0.28,0.82 -0.82,0.82 -0.55,0 -0.83,-0.28 -0.83,-0.82l0 -11.57 -6.57 11.96c-0.21,0.37 -0.48,0.54 -0.79,0.54 -0.51,0 -0.76,-0.31 -0.76,-0.93l0 -14.72c0,-0.54 0.27,-0.82 0.82,-0.82 0.55,0 0.82,0.27 0.82,0.82l0 11.56 6.58 -11.95c0.21,-0.37 0.47,-0.55 0.79,-0.55 0.5,0 0.76,0.31 0.76,0.94l0 14.72zm7.39 -13.89l-3.28 0c-0.55,0 -0.82,-0.27 -0.82,-0.82 0,-0.55 0.27,-0.83 0.82,-0.83l8.18 0c0.54,0 0.82,0.28 0.82,0.83 0,0.55 -0.28,0.82 -0.82,0.82l-3.28 0 0 13.89c0,0.55 -0.27,0.82 -0.81,0.82 -0.54,0 -0.81,-0.27 -0.81,-0.82l0 -13.89zm10.58 4.89l4.1 0c0.54,0 0.81,0.28 0.81,0.83 0,0.55 -0.27,0.82 -0.81,0.82l-4.1 0 0 6.52 5.73 0c0.54,0 0.81,0.27 0.81,0.82 0,0.55 -0.27,0.83 -0.81,0.83l-6.55 0c-0.55,0 -0.83,-0.26 -0.83,-0.77l0 -14.77c0,-0.55 0.28,-0.82 0.83,-0.82l6.55 0c0.54,0 0.81,0.28 0.81,0.83 0,0.55 -0.27,0.82 -0.81,0.82l-5.73 0 0 4.89zm19.6 9c0,0.54 -0.27,0.82 -0.82,0.82 -0.55,0 -0.82,-0.27 -0.82,-0.82l0 -13.89 -2.65 0 -3.92 14.1c-0.1,0.4 -0.36,0.61 -0.76,0.61 -0.56,0 -0.84,-0.27 -0.84,-0.79 0,-0.07 0.02,-0.16 0.03,-0.24l4.09 -14.72c0.11,-0.4 0.37,-0.61 0.78,-0.61l4.09 0c0.55,0 0.82,0.27 0.82,0.82l0 14.72zm11.39 -3.27l0 -1.64c0,-0.67 -0.24,-1.25 -0.71,-1.72 -0.48,-0.48 -1.05,-0.72 -1.72,-0.72l-4.05 0 0 6.52 4.05 0c0.67,0 1.24,-0.24 1.72,-0.72 0.47,-0.47 0.71,-1.05 0.71,-1.72zm1.65 0c0,1.13 -0.4,2.1 -1.19,2.89 -0.8,0.8 -1.76,1.2 -2.88,1.2l-4.89 0c-0.22,0 -0.4,-0.09 -0.57,-0.25 -0.16,-0.16 -0.24,-0.36 -0.24,-0.57l0 -14.72c0,-0.55 0.27,-0.82 0.82,-0.82 0.55,0 0.82,0.27 0.82,0.82l0 5.72 4.06 0c1.13,0 2.09,0.4 2.88,1.2 0.79,0.79 1.19,1.76 1.19,2.89l0 1.64zm11.41 -5.73l0 -5.74c0,-0.55 0.28,-0.82 0.83,-0.82 0.54,0 0.82,0.27 0.82,0.82l0 14.7c0,0.55 -0.28,0.83 -0.84,0.83 -0.54,0 -0.81,-0.26 -0.81,-0.8l0 -7.34 -6.48 0 0 7.35c0,0.55 -0.27,0.82 -0.82,0.82 -0.55,0 -0.82,-0.28 -0.82,-0.82l0 -14.72c0,-0.55 0.27,-0.82 0.82,-0.82 0.55,0 0.82,0.27 0.82,0.82l0 5.72 6.48 0zm11.44 5.73l0 -1.64c0,-0.67 -0.24,-1.25 -0.71,-1.72 -0.48,-0.48 -1.06,-0.72 -1.73,-0.72l-2.44 0 0 6.52 2.44 0c0.67,0 1.25,-0.24 1.73,-0.72 0.47,-0.47 0.71,-1.05 0.71,-1.72zm1.65 0c0,1.13 -0.4,2.1 -1.19,2.89 -0.8,0.8 -1.77,1.2 -2.9,1.2l-3.27 0c-0.22,0 -0.41,-0.09 -0.57,-0.25 -0.16,-0.16 -0.25,-0.36 -0.25,-0.57l0 -14.72c0,-0.55 0.28,-0.82 0.83,-0.82 0.54,0 0.82,0.27 0.82,0.82l0 5.72 2.45 0c1.13,0 2.09,0.4 2.89,1.2 0.79,0.79 1.19,1.76 1.19,2.89l0 1.64zm3.26 3.27c0,0.54 -0.27,0.82 -0.82,0.82 -0.55,0 -0.82,-0.28 -0.82,-0.82l0 -14.72c0,-0.55 0.27,-0.82 0.82,-0.82 0.55,0 0.82,0.27 0.82,0.82l0 14.72zm8.98 -8.85l4.21 -6.33c0.17,-0.25 0.38,-0.38 0.65,-0.38 0.23,0 0.43,0.08 0.61,0.25 0.17,0.16 0.26,0.35 0.26,0.57 0,0.16 -0.05,0.32 -0.15,0.47l-4.58 6.91 4.58 6.91c0.1,0.15 0.15,0.31 0.15,0.47 0,0.22 -0.09,0.41 -0.26,0.57 -0.18,0.17 -0.38,0.25 -0.61,0.25 -0.27,0 -0.48,-0.13 -0.65,-0.38l-4.21 -6.33 -4.21 6.33c-0.16,0.25 -0.38,0.38 -0.65,0.38 -0.23,0 -0.44,-0.08 -0.61,-0.25 -0.17,-0.16 -0.26,-0.35 -0.26,-0.57 0,-0.16 0.05,-0.32 0.15,-0.47l4.59 -6.91 -4.59 -6.91c-0.1,-0.15 -0.15,-0.31 -0.15,-0.47 0,-0.22 0.09,-0.41 0.26,-0.57 0.17,-0.17 0.38,-0.25 0.61,-0.25 0.27,0 0.49,0.13 0.65,0.38l4.21 6.33zm-153.05 -21.78c0,1.14 -0.39,2.11 -1.19,2.9 -0.8,0.8 -1.77,1.19 -2.9,1.19l-4.9 0c-0.54,0 -0.81,-0.27 -0.81,-0.82 0,-0.55 0.27,-0.82 0.81,-0.82l4.9 0c0.67,0 1.25,-0.24 1.73,-0.72 0.48,-0.48 0.72,-1.05 0.72,-1.73l0 -4.07 -4.08 0c-0.54,0 -0.82,-0.27 -0.82,-0.82 0,-0.55 0.28,-0.83 0.82,-0.83l4.08 0 0 -2.44c0,-0.68 -0.24,-1.25 -0.72,-1.73 -0.48,-0.48 -1.06,-0.72 -1.73,-0.72l-4.9 0c-0.54,0 -0.81,-0.27 -0.81,-0.82 0,-0.55 0.27,-0.83 0.81,-0.83l4.9 0c1.13,0 2.1,0.4 2.9,1.2 0.8,0.79 1.19,1.76 1.19,2.89l0 8.17zm13.17 3.32c0,0.21 -0.09,0.41 -0.27,0.56 -0.17,0.16 -0.37,0.24 -0.58,0.24 -0.31,0 -0.54,-0.15 -0.71,-0.44l-4.78 -8.54 -1.94 1.91 0 6.23c0,0.54 -0.28,0.81 -0.82,0.81 -0.55,0 -0.83,-0.27 -0.83,-0.81l0 -14.71c0,-0.54 0.28,-0.8 0.83,-0.8 0.54,0 0.82,0.26 0.82,0.8l0 6.25 6.87 -6.83c0.16,-0.16 0.35,-0.25 0.56,-0.25 0.21,0 0.4,0.09 0.58,0.26 0.16,0.17 0.25,0.36 0.25,0.58 0,0.21 -0.08,0.39 -0.25,0.55l-4.86 4.86 5.01 8.9c0.08,0.14 0.12,0.29 0.12,0.43zm10.49 0.77l-3.26 0c-1.13,0 -2.1,-0.39 -2.9,-1.19 -0.79,-0.79 -1.2,-1.76 -1.2,-2.9l0 -8.17c0,-1.12 0.41,-2.09 1.2,-2.89 0.8,-0.79 1.77,-1.2 2.9,-1.2l3.26 0c0.54,0 0.82,0.28 0.82,0.83 0,0.55 -0.28,0.82 -0.82,0.82l-3.26 0c-0.67,0 -1.26,0.24 -1.73,0.72 -0.48,0.48 -0.72,1.05 -0.72,1.73l0 8.16c0,0.67 0.24,1.25 0.72,1.73 0.47,0.48 1.06,0.72 1.73,0.72l3.26 0c0.54,0 0.82,0.27 0.82,0.82 0,0.55 -0.28,0.82 -0.82,0.82zm13.87 -0.81c0,0.54 -0.28,0.81 -0.83,0.81 -0.54,0 -0.82,-0.27 -0.82,-0.81l0 -13.89 -6.48 0 0 13.89c0,0.54 -0.27,0.81 -0.82,0.81 -0.55,0 -0.82,-0.27 -0.82,-0.81l0 -14.72c0,-0.55 0.27,-0.82 0.81,-0.82l8.14 0c0.55,0 0.82,0.27 0.82,0.82l0 14.72zm4.91 -9l4.1 0c0.54,0 0.81,0.28 0.81,0.83 0,0.55 -0.27,0.82 -0.81,0.82l-4.1 0 0 6.52 5.72 0c0.55,0 0.82,0.27 0.82,0.82 0,0.55 -0.27,0.82 -0.82,0.82l-6.55 0c-0.54,0 -0.82,-0.25 -0.82,-0.76l0 -14.77c0,-0.55 0.28,-0.82 0.82,-0.82l6.55 0c0.55,0 0.82,0.28 0.82,0.83 0,0.55 -0.27,0.82 -0.82,0.82l-5.72 0 0 4.89zm17.93 -1.63c0,-0.9 -0.32,-1.67 -0.95,-2.31 -0.63,-0.63 -1.39,-0.95 -2.29,-0.95l-3.24 0 0 6.52 3.24 0c0.9,0 1.66,-0.32 2.29,-0.96 0.63,-0.63 0.95,-1.4 0.95,-2.3zm1.64 0c0,1.35 -0.47,2.51 -1.43,3.46 -0.95,0.96 -2.1,1.44 -3.44,1.44l-3.25 0 0 5.73c0,0.54 -0.28,0.81 -0.82,0.81 -0.55,0 -0.83,-0.27 -0.83,-0.81l0 -14.72c0,-0.22 0.09,-0.41 0.25,-0.57 0.16,-0.16 0.35,-0.25 0.57,-0.25l4.07 0c1.35,0 2.5,0.48 3.45,1.44 0.96,0.96 1.43,2.12 1.43,3.47zm7.39 -3.26l-3.28 0c-0.54,0 -0.82,-0.27 -0.82,-0.82 0,-0.55 0.28,-0.83 0.82,-0.83l8.19 0c0.54,0 0.81,0.28 0.81,0.83 0,0.55 -0.27,0.82 -0.81,0.82l-3.29 0 0 13.89c0,0.54 -0.27,0.81 -0.81,0.81 -0.54,0 -0.81,-0.27 -0.81,-0.81l0 -13.89zm18.74 13.89c0,0.54 -0.28,0.81 -0.83,0.81 -0.54,0 -0.82,-0.27 -0.82,-0.81l0 -11.57 -6.58 11.96c-0.21,0.36 -0.47,0.54 -0.79,0.54 -0.5,0 -0.76,-0.31 -0.76,-0.93l0 -14.72c0,-0.54 0.28,-0.82 0.83,-0.82 0.54,0 0.82,0.27 0.82,0.82l0 11.56 6.58 -11.95c0.21,-0.37 0.47,-0.55 0.79,-0.55 0.5,0 0.76,0.31 0.76,0.93l0 14.73zm11.44 -3.28c0,1.14 -0.41,2.11 -1.2,2.9 -0.8,0.8 -1.77,1.19 -2.9,1.19l-0.4 0c-1.58,0 -2.77,-0.68 -3.56,-2.05 -0.09,-0.15 -0.13,-0.3 -0.13,-0.43 0,-0.21 0.09,-0.4 0.27,-0.57 0.18,-0.16 0.37,-0.24 0.59,-0.24 0.28,0 0.51,0.14 0.67,0.42 0.48,0.82 1.2,1.23 2.16,1.23l0.4 0c0.68,0 1.26,-0.24 1.73,-0.72 0.48,-0.48 0.72,-1.05 0.72,-1.73l0 -1.63c0,-0.67 -0.24,-1.25 -0.72,-1.72 -0.47,-0.48 -1.05,-0.72 -1.73,-0.72l-1.63 0c-0.54,0 -0.82,-0.27 -0.82,-0.82 0,-0.55 0.28,-0.83 0.82,-0.83l2.35 0c0.51,-0.13 0.93,-0.4 1.25,-0.82 0.32,-0.42 0.48,-0.89 0.48,-1.41 0,-0.74 -0.26,-1.37 -0.78,-1.88 -0.53,-0.52 -1.16,-0.78 -1.9,-0.78 -0.64,0 -1.2,0.2 -1.69,0.6 -0.18,0.14 -0.35,0.21 -0.53,0.21 -0.21,0 -0.41,-0.09 -0.58,-0.26 -0.16,-0.17 -0.25,-0.37 -0.25,-0.59 0,-0.22 0.11,-0.43 0.31,-0.6 0.81,-0.67 1.72,-1.01 2.74,-1.01 1.2,0 2.22,0.42 3.06,1.25 0.84,0.84 1.27,1.86 1.27,3.05 0,1.31 -0.52,2.36 -1.54,3.14 1.02,0.82 1.54,1.88 1.54,3.19l0 1.63zm11.49 -1.66l-2.4 -7.21 -2.42 7.21 4.82 0zm-5.37 1.65l-1.18 3.52c-0.12,0.37 -0.37,0.56 -0.73,0.56 -0.57,0 -0.85,-0.26 -0.85,-0.78 0,-0.1 0.02,-0.2 0.05,-0.3l4.91 -14.71c0.15,-0.47 0.41,-0.7 0.77,-0.7 0.36,0 0.61,0.23 0.76,0.7l4.9 14.71c0.03,0.1 0.05,0.2 0.05,0.3 0,0.52 -0.28,0.78 -0.85,0.78 -0.37,0 -0.61,-0.19 -0.73,-0.56l-1.18 -3.52 -5.92 0zm-195.45 13.27c12.41,0 22.47,10.07 22.47,22.5 0,12.43 -10.06,22.51 -22.47,22.51 -12.41,0 -22.47,-10.08 -22.47,-22.51 0,-12.43 10.06,-22.5 22.47,-22.5z"/>
 </g>
 </symbol>

</svg>
